<svg width="240" height="159" viewBox="0 0 240 159" fill="none" xmlns="http://www.w3.org/2000/svg">
<g clip-path="url(#clip0_1180_917)">
<path d="M5.15198 70.3564V99.5439H3.81296V66.6377L29.3001 96.2576V67.1133H30.6391V100.02L5.15198 70.3564ZM47.3192 98.8521C48.9201 98.8521 50.4438 98.4629 51.8905 97.6846C53.3372 96.9062 54.5377 95.8396 55.492 94.4847V96.69C54.353 97.8719 53.1064 98.7367 51.752 99.2845C50.3976 99.8034 48.8585 100.063 47.1345 100.063C45.2261 100.063 43.4253 99.5871 41.7324 98.6359C40.0702 97.6846 38.7312 96.4162 37.7154 94.8307C36.7304 93.2452 36.2378 91.5588 36.2378 89.7715C36.2378 87.8401 36.7304 86.1104 37.7154 84.5826C38.7004 83.0259 40.0394 81.8152 41.7324 80.9504C43.4561 80.0856 45.3646 79.6531 47.4577 79.6531C50.6593 79.6531 53.3834 80.8351 55.6305 83.1989L41.1321 96.6035C42.1479 97.3819 43.1329 97.9584 44.0871 98.3332C45.0414 98.6791 46.1187 98.8521 47.3192 98.8521ZM37.7154 89.6418C37.7154 92.0344 38.5619 94.0812 40.2548 95.782L53.7836 83.1989C52.7678 82.3629 51.7828 81.7719 50.8285 81.426C49.8743 81.0513 48.7354 80.8639 47.4116 80.8639C45.5339 80.8639 43.8563 81.2531 42.3788 82.0314C40.932 82.7809 39.7931 83.8187 38.962 85.1447C38.1309 86.4708 37.7154 87.9698 37.7154 89.6418ZM62.0494 75.6318C61.6184 75.6318 61.2337 75.4876 60.8951 75.1993C60.5873 74.9111 60.4334 74.5507 60.4334 74.1183C60.4334 73.7147 60.5873 73.3688 60.8951 73.0805C61.2337 72.7923 61.6184 72.6481 62.0494 72.6481C62.4803 72.6481 62.8497 72.7923 63.1575 73.0805C63.4961 73.3688 63.6654 73.7147 63.6654 74.1183C63.6654 74.5507 63.4961 74.9111 63.1575 75.1993C62.8497 75.4876 62.4803 75.6318 62.0494 75.6318ZM61.3106 80.0856H62.7881V99.5439H61.3106V80.0856ZM79.692 108.538C77.9375 108.538 76.2291 108.163 74.5669 107.414C72.9047 106.664 71.6119 105.684 70.6884 104.473V102.484C71.4888 103.868 72.7354 105.021 74.4284 105.944C76.1522 106.866 77.9067 107.327 79.692 107.327C82.6471 107.327 84.9249 106.506 86.5255 104.863C88.1262 103.248 88.9265 100.87 88.9265 97.7278V94.8307C88.0954 96.3873 86.7872 97.6557 85.0019 98.6359C83.2473 99.5871 81.4004 100.063 79.4612 100.063C77.4912 100.063 75.6597 99.6016 73.9667 98.6791C72.2737 97.7566 70.9347 96.5171 69.9497 94.9604C68.9647 93.3749 68.4722 91.6741 68.4722 89.858C68.4722 88.0419 68.9647 86.3555 69.9497 84.7988C70.9347 83.2133 72.2737 81.9593 73.9667 81.0369C75.6597 80.1144 77.4912 79.6531 79.4612 79.6531C81.4928 79.6531 83.3704 80.1288 85.0942 81.0801C86.818 82.0314 88.0954 83.3142 88.9265 84.9285V80.0856H90.404V97.7278C90.404 101.274 89.4806 103.954 87.6337 105.771C85.8176 107.616 83.1703 108.538 79.692 108.538ZM79.5535 98.8521C81.2465 98.8521 82.8164 98.4485 84.2631 97.6413C85.7098 96.8053 86.8487 95.7099 87.6798 94.355C88.5417 92.9713 88.9727 91.4723 88.9727 89.858C88.9727 88.2437 88.5417 86.759 87.6798 85.4042C86.8487 84.0205 85.7098 82.925 84.2631 82.1179C82.8164 81.2819 81.2465 80.8639 79.5535 80.8639C77.8298 80.8639 76.2291 81.2819 74.7516 82.1179C73.3049 82.925 72.1352 84.0205 71.2425 85.4042C70.3806 86.759 69.9497 88.2437 69.9497 89.858C69.9497 91.4723 70.3806 92.9713 71.2425 94.355C72.1352 95.7099 73.3049 96.8053 74.7516 97.6413C76.2291 98.4485 77.8298 98.8521 79.5535 98.8521ZM96.2304 67.1133H97.7079V84.1069C98.3543 82.8097 99.4471 81.7431 100.986 80.9071C102.556 80.0423 104.141 79.6099 105.742 79.6099C108.666 79.6099 110.913 80.3594 112.483 81.8584C114.084 83.3574 114.884 85.4762 114.884 88.2148V99.5439H113.407V88.2148C113.407 85.851 112.729 84.0349 111.375 82.7665C110.051 81.4693 108.174 80.8206 105.742 80.8206C104.264 80.8206 102.91 81.1522 101.679 81.8152C100.447 82.4494 99.4778 83.343 98.7699 84.4961C98.0619 85.6204 97.7079 86.8599 97.7079 88.2148V99.5439H96.2304V67.1133ZM131.611 100.02C129.734 100.02 127.918 99.5439 126.163 98.5926C124.439 97.6413 123.116 96.3873 122.192 94.8307V99.5439H120.715V67.1133H122.192V85.015C123.023 83.3719 124.316 82.0602 126.071 81.0801C127.825 80.1 129.672 79.6099 131.611 79.6099C133.612 79.6099 135.444 80.0711 137.106 80.9936C138.799 81.9161 140.138 83.1557 141.122 84.7123C142.107 86.269 142.6 87.9698 142.6 89.8147C142.6 91.6597 142.107 93.3605 141.122 94.9171C140.138 96.4738 138.799 97.7134 137.106 98.6359C135.444 99.5583 133.612 100.02 131.611 100.02ZM131.704 98.8088C133.397 98.8088 134.967 98.4052 136.413 97.5981C137.86 96.7621 138.999 95.6667 139.83 94.3118C140.692 92.9281 141.122 91.4291 141.122 89.8147C141.122 88.2292 140.692 86.7446 139.83 85.3609C138.968 83.9772 137.814 82.8818 136.367 82.0746C134.92 81.2386 133.351 80.8206 131.658 80.8206C129.965 80.8206 128.379 81.2386 126.902 82.0746C125.455 82.9106 124.285 84.0205 123.393 85.4042C122.531 86.7879 122.1 88.2725 122.1 89.858C122.1 91.4435 122.531 92.9281 123.393 94.3118C124.285 95.6667 125.47 96.7621 126.948 97.5981C128.426 98.4052 130.011 98.8088 131.704 98.8088ZM157.109 100.236C155.015 100.236 153.122 99.7601 151.429 98.8088C149.736 97.8287 148.413 96.5459 147.459 94.9604C146.504 93.3461 146.027 91.602 146.027 89.7282C146.027 87.8833 146.504 86.1681 147.459 84.5826C148.444 82.9971 149.767 81.7431 151.429 80.8206C153.122 79.8694 155 79.3937 157.062 79.3937C159.094 79.3937 160.941 79.8694 162.603 80.8206C164.296 81.7431 165.62 82.9971 166.574 84.5826C167.528 86.1681 168.005 87.8833 168.005 89.7282C168.005 91.6597 167.544 93.4325 166.62 95.0469C165.697 96.6324 164.404 97.9008 162.742 98.8521C161.11 99.7745 159.233 100.236 157.109 100.236ZM157.109 99.025C158.863 99.025 160.464 98.607 161.911 97.771C163.357 96.935 164.481 95.8252 165.281 94.4415C166.112 93.029 166.528 91.4867 166.528 89.8147C166.528 88.1716 166.112 86.6437 165.281 85.2312C164.45 83.8187 163.311 82.6944 161.864 81.8584C160.418 81.0224 158.817 80.6044 157.062 80.6044C155.308 80.6044 153.692 81.0369 152.214 81.9017C150.768 82.7377 149.613 83.8619 148.751 85.2745C147.92 86.687 147.505 88.2148 147.505 89.858C147.505 91.5011 147.92 93.029 148.751 94.4415C149.613 95.8252 150.768 96.935 152.214 97.771C153.692 98.607 155.323 99.025 157.109 99.025ZM172.162 80.0856H173.64V84.5826C174.255 83.1701 175.148 82.0602 176.318 81.2531C177.518 80.4459 178.873 80.0423 180.381 80.0423C181.335 80.0423 182.305 80.2297 183.29 80.6044V82.2044C182.397 81.5702 181.397 81.2531 180.289 81.2531C179.18 81.2531 178.103 81.5702 177.057 82.2044C176.041 82.8385 175.21 83.689 174.563 84.7556C173.948 85.8222 173.64 86.9608 173.64 88.1716V99.5439H172.162V80.0856ZM66.1029 150.856C62.8709 150.856 59.9005 150.121 57.1917 148.651C54.4829 147.152 52.3282 145.105 50.7275 142.511C49.1577 139.888 48.3728 136.947 48.3728 133.69C48.3728 130.548 49.1885 127.679 50.8199 125.085C52.4821 122.49 54.683 120.444 57.4225 118.945C60.1929 117.446 63.1325 116.696 66.2415 116.696C68.3962 116.696 70.1045 116.883 71.3666 117.258C72.6286 117.604 74.0908 118.224 75.753 119.118V120.717C74.1831 119.709 72.721 119.002 71.3666 118.599C70.043 118.166 68.3808 117.95 66.38 117.95C63.3326 117.95 60.5469 118.685 58.0228 120.155C55.5295 121.597 53.5441 123.543 52.0665 125.993C50.6198 128.414 49.8964 131.023 49.8964 133.819C49.8964 136.645 50.6352 139.268 52.1127 141.689C53.5902 144.111 55.5449 146.042 57.9766 147.484C60.4391 148.896 63.0863 149.602 65.9182 149.602C67.9498 149.602 69.7198 149.386 71.2281 148.954C72.7364 148.492 74.2447 147.786 75.753 146.835V148.435C74.2754 149.271 72.7518 149.876 71.1819 150.251C69.6428 150.655 67.9498 150.856 66.1029 150.856ZM81.5764 117.561H83.054V134.555C83.7004 133.257 84.7931 132.191 86.3322 131.355C87.9021 130.49 89.4873 130.057 91.0879 130.057C94.0122 130.057 96.2592 130.807 97.8291 132.306C99.4298 133.805 100.23 135.924 100.23 138.662V149.992H98.7526V138.662C98.7526 136.299 98.0754 134.482 96.721 133.214C95.3974 131.917 93.5197 131.268 91.0879 131.268C89.6104 131.268 88.256 131.6 87.0248 132.263C85.7935 132.897 84.8239 133.791 84.1159 134.944C83.408 136.068 83.054 137.308 83.054 138.662V149.992H81.5764V117.561ZM116.172 149.3C117.773 149.3 119.296 148.91 120.743 148.132C122.19 147.354 123.39 146.287 124.345 144.932V147.138C123.206 148.32 121.959 149.184 120.605 149.732C119.25 150.251 117.711 150.51 115.987 150.51C114.079 150.51 112.278 150.035 110.585 149.083C108.923 148.132 107.584 146.864 106.568 145.278C105.583 143.693 105.091 142.006 105.091 140.219C105.091 138.288 105.583 136.558 106.568 135.03C107.553 133.474 108.892 132.263 110.585 131.398C112.309 130.533 114.217 130.101 116.311 130.101C119.512 130.101 122.236 131.283 124.483 133.646L109.985 147.051C111.001 147.829 111.986 148.406 112.94 148.781C113.894 149.127 114.972 149.3 116.172 149.3ZM106.568 140.089C106.568 142.482 107.415 144.529 109.108 146.23L122.636 133.646C121.62 132.811 120.635 132.22 119.681 131.874C118.727 131.499 117.588 131.311 116.264 131.311C114.387 131.311 112.709 131.701 111.232 132.479C109.785 133.228 108.646 134.266 107.815 135.592C106.984 136.918 106.568 138.417 106.568 140.089ZM136.997 123.615C135.827 123.615 134.75 123.888 133.765 124.436C132.78 124.955 131.995 125.69 131.41 126.641C130.856 127.564 130.579 128.587 130.579 129.712V130.533H136.997V131.744H130.579V149.992H129.101V129.712C129.101 128.357 129.44 127.132 130.117 126.036C130.825 124.912 131.779 124.033 132.98 123.398C134.211 122.735 135.55 122.404 136.997 122.404V123.615Z" fill="black"/>
<path d="M189.516 60.5601C189.77 60.8556 190.276 60.7425 190.361 60.3714L194.896 40.3877C194.969 40.064 194.658 39.7791 194.314 39.8559L176.097 43.927C175.753 44.0038 175.612 44.3899 175.833 44.6477L189.516 60.5601Z" fill="#C4C4C4"/>
<path d="M185.809 63.8829C186.211 63.8514 186.395 63.3978 186.117 63.1239L170.432 47.6563C170.188 47.4158 169.759 47.4964 169.633 47.8063L162.62 65.0432C162.494 65.3526 162.757 65.6796 163.11 65.6522L185.809 63.8829Z" fill="#C4C4C4"/>
<path d="M195.073 73.0269C194.717 72.8463 194.296 73.1337 194.371 73.5066L198.412 93.583C198.478 93.9082 198.883 94.0586 199.168 93.8636L214.302 83.5304C214.587 83.3354 214.558 82.9282 214.248 82.7705L195.073 73.0269Z" fill="#C4C4C4"/>
<path d="M195.328 60.9515C195.198 61.3109 195.572 61.651 195.952 61.5181L216.394 54.3843C216.725 54.269 216.814 53.8695 216.561 53.6393L203.121 41.4238C202.867 41.1933 202.443 41.289 202.33 41.6024L195.328 60.9515Z" fill="#C4C4C4"/>
<path d="M199.379 68.2308C199.003 68.3709 198.969 68.8578 199.323 69.0425L218.372 78.9987C218.68 79.1599 219.063 78.9649 219.086 78.6347L220.309 61.1321C220.332 60.8019 219.98 60.5619 219.651 60.6844L199.379 68.2308Z" fill="#C4C4C4"/>
<path fill-rule="evenodd" clip-rule="evenodd" d="M191.904 99.9944C211.826 99.9944 227.976 84.8695 227.976 66.2125C227.976 47.5554 211.826 32.4306 191.904 32.4306C171.982 32.4306 155.832 47.5554 155.832 66.2125H143.808C143.808 41.3362 165.341 21.17 191.904 21.17C218.466 21.17 240 41.3362 240 66.2125C240 91.0886 218.466 111.255 191.904 111.255V99.9944Z" fill="#FF7E55"/>
<path d="M143.808 66.2125H155.832C155.832 67.4561 154.755 68.4646 153.427 68.4646H146.212C144.884 68.4646 143.808 67.4561 143.808 66.2125Z" fill="#FF7E55"/>
<path d="M191.904 99.9944V111.255C190.576 111.255 189.499 110.246 189.499 109.003V102.246C189.499 101.003 190.576 99.9944 191.904 99.9944Z" fill="#FF7E55"/>
<path d="M143.808 66.2125H155.832C155.832 68.7002 153.678 70.7167 151.022 70.7167H148.617C145.961 70.7167 143.808 68.7002 143.808 66.2125Z" fill="#FCE250"/>
<path d="M191.904 99.9944V111.255C189.247 111.255 187.094 109.238 187.094 106.751V104.499C187.094 102.011 189.247 99.9944 191.904 99.9944Z" fill="#FCE250"/>
<path d="M189.516 60.5601C189.77 60.8556 190.276 60.7425 190.361 60.3714L194.896 40.3877C194.97 40.064 194.658 39.7791 194.314 39.8559L176.097 43.927C175.753 44.0039 175.612 44.3899 175.834 44.6477L189.516 60.5601Z" fill="#F5F5F5"/>
<path d="M185.809 63.8829C186.211 63.8514 186.395 63.3978 186.117 63.124L170.432 47.6564C170.188 47.4158 169.759 47.4965 169.633 47.8063L162.62 65.0432C162.494 65.3527 162.757 65.6797 163.11 65.6522L185.809 63.8829Z" fill="#F5F5F5"/>
<path d="M195.073 73.0273C194.717 72.8463 194.296 73.1336 194.371 73.5066L198.412 93.5829C198.478 93.9081 198.882 94.0586 199.168 93.8635L214.302 83.5303C214.587 83.3353 214.558 82.9281 214.248 82.7705L195.073 73.0273Z" fill="#F5F5F5"/>
<path d="M195.328 60.9515C195.198 61.3109 195.572 61.651 195.952 61.5181L216.394 54.3843C216.725 54.269 216.814 53.8694 216.561 53.6393L203.121 41.4238C202.867 41.1933 202.444 41.289 202.33 41.6024L195.328 60.9515Z" fill="#F5F5F5"/>
<path d="M199.379 68.2308C199.003 68.3709 198.969 68.8578 199.323 69.0424L218.372 78.9986C218.68 79.1599 219.063 78.9649 219.086 78.6347L220.309 61.1321C220.332 60.8019 219.98 60.5618 219.651 60.6844L199.379 68.2308Z" fill="#F5F5F5"/>
<path fill-rule="evenodd" clip-rule="evenodd" d="M191.904 99.9943C211.826 99.9943 227.976 84.8695 227.976 66.2124C227.976 47.5554 211.826 32.4305 191.904 32.4305C171.982 32.4305 155.832 47.5554 155.832 66.2124H143.808C143.808 41.3361 165.341 21.1699 191.904 21.1699C218.466 21.1699 240 41.3361 240 66.2124C240 91.0885 218.466 111.255 191.904 111.255V99.9943Z" fill="#FCE250"/>
<path d="M189.666 2.25761L189.041 2.59643C186.743 3.84332 185.959 6.59913 187.29 8.7517L193.295 18.4604C194.627 20.613 197.569 21.3472 199.868 20.1003L200.492 19.7615C202.791 18.5146 203.575 15.7588 202.243 13.6062L196.238 3.89749C194.907 1.74492 191.964 1.01072 189.666 2.25761Z" fill="#4ECB71"/>
<path d="M221.307 12.3958L220.823 11.895C219.038 10.0521 215.997 9.91263 214.029 11.5835L209.415 15.501C207.447 17.1719 207.298 20.0204 209.082 21.8634L209.567 22.3641C211.351 24.2071 214.393 24.3466 216.361 22.6757L220.975 18.7582C222.943 17.0873 223.092 14.2388 221.307 12.3958Z" fill="#4ECB71"/>
</g>
<defs>
<clipPath id="clip0_1180_917">
<rect width="240" height="159" fill="white"/>
</clipPath>
</defs>
</svg>
